<?xml version="1.0" standalone="no"?><!DOCTYPE svg PUBLIC "-//W3C//DTD SVG 1.1//EN" "http://www.w3.org/Graphics/SVG/1.1/DTD/svg11.dtd"><svg t="1691498100457" class="icon" viewBox="0 0 1024 1024" version="1.1" xmlns="http://www.w3.org/2000/svg" p-id="7798" xmlns:xlink="http://www.w3.org/1999/xlink" width="128" height="128"><path d="M512 296.533333c-117.333333 0-215.466667 96-215.466667 215.466667 0 117.333333 96 215.466667 215.466667 215.466667S727.466667 629.333333 727.466667 512 629.333333 296.533333 512 296.533333zM614.4 533.333333H533.333333v81.066667c0 10.666667-8.533333 21.333333-21.333333 21.333333s-21.333333-8.533333-21.333333-21.333333V533.333333h-81.066667c-10.666667 0-21.333333-8.533333-21.333333-21.333333s8.533333-21.333333 21.333333-21.333333H490.666667v-81.066667c0-10.666667 8.533333-21.333333 21.333333-21.333333s21.333333 8.533333 21.333333 21.333333V490.666667h81.066667c10.666667 0 21.333333 8.533333 21.333333 21.333333s-10.666667 21.333333-21.333333 21.333333z" fill="#3D7EFF" p-id="7799"></path><path d="M512 0C228.266667 0 0 228.266667 0 512s228.266667 512 512 512 512-228.266667 512-512S795.733333 0 512 0z m0 768c-140.8 0-256-115.2-256-256s115.2-256 256-256 256 115.2 256 256-115.2 256-256 256z" fill="#3D7EFF" p-id="7800"></path></svg>