<?xml version="1.0" standalone="no"?><!DOCTYPE svg PUBLIC "-//W3C//DTD SVG 1.1//EN" "http://www.w3.org/Graphics/SVG/1.1/DTD/svg11.dtd"><svg t="1691541728198" class="icon" viewBox="0 0 1024 1024" version="1.1" xmlns="http://www.w3.org/2000/svg" p-id="11009" xmlns:xlink="http://www.w3.org/1999/xlink" width="128" height="128"><path d="M624.390244 187.317073H399.609756c-41.209756 0-74.926829-33.717073-74.926829-74.926829V74.926829c0-41.209756 33.717073-74.926829 74.926829-74.926829h224.780488c41.209756 0 74.926829 33.717073 74.926829 74.926829v37.463415c0 41.209756-33.717073 74.926829-74.926829 74.926829zM399.609756 49.95122c-13.736585 0-24.97561 11.239024-24.97561 24.975609v37.463415c0 13.736585 11.239024 24.97561 24.97561 24.97561h224.780488c13.736585 0 24.97561-11.239024 24.97561-24.97561V74.926829c0-13.736585-11.239024-24.97561-24.97561-24.975609H399.609756z" fill="#AFFCFE" p-id="11010"></path><path d="M237.268293 274.731707h549.463414c54.946341 0 99.902439 44.956098 99.902439 99.902439v549.463415c0 54.946341-44.956098 99.902439-99.902439 99.902439H237.268293c-54.946341 0-99.902439-44.956098-99.902439-99.902439V374.634146c0-54.946341 44.956098-99.902439 99.902439-99.902439zM99.902439 124.878049h824.195122c21.229268 0 37.463415 16.234146 37.463415 37.463414s-16.234146 37.463415-37.463415 37.463415H99.902439c-21.229268 0-37.463415-16.234146-37.463415-37.463415s16.234146-37.463415 37.463415-37.463414z" fill="#2F77F1" p-id="11011"></path><path d="M387.121951 487.02439c13.736585 0 24.97561 11.239024 24.97561 24.97561v274.731707c0 13.736585-11.239024 24.97561-24.97561 24.97561s-24.97561-11.239024-24.97561-24.97561V512c0-13.736585 11.239024-24.97561 24.97561-24.97561z m249.756098 0c13.736585 0 24.97561 11.239024 24.97561 24.97561v274.731707c0 13.736585-11.239024 24.97561-24.97561 24.97561s-24.97561-11.239024-24.97561-24.97561V512c0-13.736585 11.239024-24.97561 24.97561-24.97561z" fill="#AFFCFE" p-id="11012"></path></svg>