<?xml version="1.0" standalone="no"?><!DOCTYPE svg PUBLIC "-//W3C//DTD SVG 1.1//EN" "http://www.w3.org/Graphics/SVG/1.1/DTD/svg11.dtd"><svg t="1691497515262" class="icon" viewBox="0 0 1024 1024" version="1.1" xmlns="http://www.w3.org/2000/svg" p-id="6135" xmlns:xlink="http://www.w3.org/1999/xlink" width="30" height="30"><path d="M617.952531 599.704351H510.805167V941.554513h122.453416V617.561912c2.551508-10.205034-5.102018-17.857561-15.306052-17.857561z m-45.920156 170.925081c0-7.653526 5.102018-10.205034 10.204035-10.205034s10.205034 5.103017 10.205034 10.205034v43.368648c0 7.653526-5.103017 10.205034-10.205034 10.205034s-10.204035-5.103017-10.204035-10.205034v-43.368648z" fill="#FFCC66" p-id="6136"></path><path d="M867.96238 525.718603L510.805167 181.316933v183.680624h45.920156c10.204035 0 17.857561 7.653526 17.857561 17.85856v91.840312c0 10.204035-7.653526 17.857561-17.857561 17.857561h-45.920156v107.147364h107.147364c10.204035 0 17.857561 7.653526 17.857561 17.857561V834.405151h244.907832V530.82062c-5.102018 0-7.652527 0.000999-12.755544-5.102017z" fill="#8BB9FF" p-id="6137"></path><path d="M388.350751 617.557916c0-10.205034 7.653526-17.85856 17.857561-17.85856h107.147364V492.551992h-45.920156c-10.204035 0-17.857561-7.652527-17.857561-17.857561v-91.840312c0-10.205034 7.653526-17.857561 17.857561-17.857561h45.920156V183.866443L156.198462 528.268113c-2.551508 2.551508-7.653526 5.102018-12.755543 5.102018v303.58453H388.350751V617.557916z" fill="#BCD6FF" p-id="6138"></path><path d="M143.442919 834.404152v40.818139c0 35.716121 28.062595 63.777717 61.227208 63.777717h183.680624V831.853643H143.442919v2.550509z" fill="#ECF2FF" p-id="6139"></path><path d="M635.810092 941.552515h183.681623c33.164613 0 61.226209-28.061596 61.226209-63.777717v-40.818138H635.810092v104.595855z" fill="#BCD6FF" p-id="6140"></path><path d="M819.490716 211.931036c0-10.204035-7.653526-17.857561-17.857561-17.857561h-68.880734c-10.204035 0-17.857561 7.653526-17.857561 17.857561v81.636277l102.045347 99.493838V211.931036h2.550509z" fill="#FFCC66" p-id="6141"></path><path d="M406.209311 599.704351c-10.205034 0-17.85856 7.652527-17.85856 17.857561V941.554513h122.454416V599.704351H406.209311z" fill="#FBF585" p-id="6142"></path><path d="M556.725323 492.554989c10.204035 0 17.857561-7.653526 17.857561-17.857561v-91.840312c0-10.205034-7.653526-17.85856-17.857561-17.85856h-45.920156v127.556433h45.920156z" fill="#BCD6FF" p-id="6143"></path><path d="M452.129467 382.857116v91.840312c0 10.204035 7.652527 17.857561 17.857561 17.857561h45.920156V364.998556h-45.920156c-12.755543 0-17.857561 7.653526-17.857561 17.85856z" fill="#ECF2FF" p-id="6144"></path><path d="M582.23641 824.201116c5.102018 0 10.205034-5.102018 10.205034-10.204035V770.627434c0-7.653526-5.103017-10.204035-10.205034-10.204035s-10.204035 5.102018-10.204035 10.204035v43.369647c0 5.102018 5.102018 10.204035 10.204035 10.204035z" fill="#FF8A65" p-id="6145"></path><path d="M934.291606 461.942884l-375.015774-359.708722c-25.511087-25.511087-66.329225-25.511087-91.840312 0L89.869237 461.942884c-10.204035 10.205034-10.204035 25.511087 0 35.716121l28.062595 28.062595c10.204035 10.204035 25.511087 10.204035 35.715122 0L510.805167 183.870439 867.96238 525.7216c10.204035 10.204035 25.511087 10.204035 35.715122 0l28.062596-28.062595c12.755543-7.653526 12.755543-25.511087 2.551508-35.716121z" fill="#5895ED" p-id="6146"></path><path d="M513.355676 81.825093c-17.857561 0-33.164613 5.103017-45.920156 17.85856L89.869237 461.942884c-10.204035 10.205034-10.204035 25.511087 0 35.716121l28.062595 28.061596c10.204035 10.205034 25.511087 10.205034 35.715122 0L510.805167 183.870439V81.825093h2.550509z" fill="#8BB9FF" p-id="6147"></path></svg>