<?xml version="1.0" standalone="no"?><!DOCTYPE svg PUBLIC "-//W3C//DTD SVG 1.1//EN" "http://www.w3.org/Graphics/SVG/1.1/DTD/svg11.dtd"><svg t="1662261095722" class="icon" viewBox="0 0 1024 1024" version="1.1" xmlns="http://www.w3.org/2000/svg" p-id="5871" xmlns:xlink="http://www.w3.org/1999/xlink" width="30" height="30"><path d="M908 836H116A36 36 0 0 1 80 800V296h864V800a36 36 0 0 1-36 36z" fill="#4D4D4D" p-id="5872"></path><path d="M916 181.6H108.16a36.8 36.8 0 0 0-36.8 36.64v587.52a36.96 36.96 0 0 0 36.8 36.8h807.84a36.8 36.8 0 0 0 36.64-36.8V218.24a36.96 36.96 0 0 0-36.64-36.64z" fill="#333333" opacity=".1" p-id="5873"></path><path d="M80 314.08h288v-126.08H116A36 36 0 0 0 80 224z" fill="#E0DDD8" p-id="5874"></path><path d="M656 188H368v126.08h288z" fill="#3E92CC" p-id="5875"></path><path d="M944 314.08H656v-126.08h252A36 36 0 0 1 944 224z" fill="#0A2463" p-id="5876"></path><path d="M356 512L189.76 678.24a19.68 19.68 0 0 0-2.56 27.68l2.56 2.56L224 742.4a19.68 19.68 0 0 0 27.68 2.56l2.56-2.56L420.32 576a19.68 19.68 0 0 0 2.56-27.68 19.36 19.36 0 0 0-2.56-2.56L386.24 512a23.04 23.04 0 0 0-30.24 0z" opacity=".1" p-id="5877"></path><path d="M353.6 517.44l-158.4 158.4a18.56 18.56 0 0 0-2.4 26.4l2.4 2.4 32 32a18.72 18.72 0 0 0 26.4 2.56L256 736l158.4-158.4a18.56 18.56 0 0 0 2.4-26.4 16.96 16.96 0 0 0-2.4-2.4l-32-32a21.76 21.76 0 0 0-28.8 0.64z" fill="#C0C0C0" p-id="5878"></path><path d="M253.92 385.92l166.4 166.24a19.68 19.68 0 0 1 2.56 27.68l-2.56 2.56-34.08 34.08a19.68 19.68 0 0 1-27.68 2.56 19.36 19.36 0 0 1-2.56-2.56l-166.24-166.4a19.68 19.68 0 0 1-2.56-27.68l2.56-2.56L224 385.92a22.72 22.72 0 0 1 29.92 0z" opacity=".1" p-id="5879"></path><path d="M256 391.36l158.4 158.4a18.56 18.56 0 0 1 2.4 26.24 16.96 16.96 0 0 1-2.4 2.4l-32 32a18.56 18.56 0 0 1-26.4 2.4 16.96 16.96 0 0 1-2.4-2.4l-158.4-158.4a18.56 18.56 0 0 1-2.4-26.4 16.96 16.96 0 0 1 2.4-2.4l32-32a21.92 21.92 0 0 1 28.8 0.16z" fill="#EBEBEB" p-id="5880"></path><path d="M462.4 670.56m33.28 0l462.4 0q33.28 0 33.28 33.28l0 151.36q0 33.28-33.28 33.28l-462.4 0q-33.28 0-33.28-33.28l0-151.36q0-33.28 33.28-33.28Z" fill="#CFD4F0" p-id="5881"></path><path d="M604.16 802.56v48.8h-22.4v-134.72h40.96a54.72 54.72 0 0 1 36 10.72 38.08 38.08 0 0 1 12.8 30.56 42.56 42.56 0 0 1-13.28 32 51.2 51.2 0 0 1-36.16 12.48z m0-67.52V784h14.4a32 32 0 0 0 21.44-6.4 24.8 24.8 0 0 0 7.52-18.88c0-16-9.12-23.68-27.68-23.68z m194.56 116.32h-26.24L751.04 816a49.6 49.6 0 0 0-5.76-8.48 32 32 0 0 0-5.6-5.92 19.2 19.2 0 0 0-6.24-3.2 25.44 25.44 0 0 0-7.68-1.12h-8.96v54.72h-22.4v-135.36h44.48a58.08 58.08 0 0 1 17.44 2.24 34.56 34.56 0 0 1 13.92 6.88 29.12 29.12 0 0 1 9.28 11.36 34.24 34.24 0 0 1 3.36 16 40.32 40.32 0 0 1-2.24 13.12 35.2 35.2 0 0 1-5.92 10.72 40.48 40.48 0 0 1-9.44 7.84 48.96 48.96 0 0 1-12.32 5.12 36.32 36.32 0 0 1 6.4 4.64l5.12 5.12a43.04 43.04 0 0 1 4.8 5.92 85.76 85.76 0 0 1 5.44 7.84z m-81.92-116.64v43.84H736a28.16 28.16 0 0 0 9.6-1.6 19.2 19.2 0 0 0 7.52-4.64 20.64 20.64 0 0 0 4.96-7.36 21.76 21.76 0 0 0 1.76-9.6 18.88 18.88 0 0 0-6.08-16 24.96 24.96 0 0 0-17.6-5.44z m173.44 116.64H814.4v-134.72h72.8V736H836.8v38.24h46.4v18.88h-46.4V832h53.44z" p-id="5882"></path><path d="M489.12 663.52h475.52a34.88 34.88 0 0 1 34.24 35.36v161.28A35.04 35.04 0 0 1 964.96 896H489.12a34.88 34.88 0 0 1-34.24-35.36V698.88a34.88 34.88 0 0 1 34.24-35.36z" opacity=".1" p-id="5883"></path></svg>